<svg xmlns="http://www.w3.org/2000/svg" xmlns:xlink="http://www.w3.org/1999/xlink" id="Layer_1" x="0" y="0" version="1.1" viewBox="0 0 24 24" xml:space="preserve" style="enable-background:new 0 0 24 24"><style type="text/css">.st0{fill:#001b35}</style><path d="M6.8,4.2C6.5,4.2,6.2,4.3,6,4.6L0.5,12c-0.3,0.4-0.3,0.8,0,1.2L6,20.6C6.2,20.9,6.5,21,6.8,21H23	c0.6,0,1-0.4,1-1V5.2c0-0.6-0.4-1-1-1L6.8,4.2z M9.2,17.8c-0.2-0.3-0.2-0.7,0-0.9l4.3-4.4L9.4,8.3c-0.2-0.3-0.2-0.7,0-0.9	c0.2-0.3,0.7-0.3,0.9,0l4.1,4.2l4.1-4.2c0.2-0.3,0.7-0.3,0.9,0c0.2,0.3,0.2,0.7,0,0.9l-4.1,4.2l4.3,4.4c0.2,0.3,0.2,0.7,0,0.9	s-0.7,0.3-0.9,0l-4.3-4.4l-4.3,4.4C9.8,18.1,9.4,18.1,9.2,17.8z" class="st0"/></svg>